<?xml version="1.0" standalone="no"?>
<!DOCTYPE svg PUBLIC "-//W3C//DTD SVG 20010904//EN"
 "http://www.w3.org/TR/2001/REC-SVG-20010904/DTD/svg10.dtd">
<svg version="1.0" xmlns="http://www.w3.org/2000/svg"
 width="512.000000pt" height="512.000000pt" viewBox="0 0 512.000000 512.000000"
 preserveAspectRatio="xMidYMid meet">
<metadata>
Created by potrace 1.14, written by Peter Selinger 2001-2017
</metadata>
<g transform="translate(0.000000,512.000000) scale(0.100000,-0.100000)"
fill="#000000" stroke="none">
<path d="M0 2560 l0 -2560 2560 0 2560 0 0 2560 0 2560 -2560 0 -2560 0 0
-2560z m815 595 c77 -20 143 -39 146 -43 4 -4 19 -108 33 -232 14 -124 28
-238 31 -255 5 -29 19 -36 710 -330 l705 -300 0 -198 0 -197 -42 21 c-59 30
-1663 861 -1665 863 -1 1 -20 145 -42 321 -23 176 -44 337 -47 359 -5 34 -4
37 12 33 11 -3 82 -22 159 -42z m3662 8 c-3 -21 -22 -182 -42 -358 -20 -176
-37 -321 -38 -321 -1 -1 -380 -198 -842 -439 -462 -241 -843 -439 -847 -442
-5 -2 -8 85 -8 194 l0 198 700 300 c385 165 700 304 701 310 0 5 12 123 27
260 l27 250 155 42 c85 23 159 42 164 42 5 1 6 -16 3 -36z m-2242 -369 l340
-86 675 174 c371 96 676 174 678 173 8 -6 -23 -355 -32 -358 -329 -125 -1317
-487 -1327 -487 -17 0 -1320 480 -1332 490 -7 7 -35 266 -37 336 0 21 15 18
348 -67 191 -49 500 -128 687 -175z"/>
</g>
</svg>
